<mxfile host="app.diagrams.net" agent="Mozilla/5.0 (Windows NT 10.0; Win64; x64) AppleWebKit/537.36 (KHTML, like Gecko) Chrome/135.0.0.0 Safari/537.36" version="26.2.14">
  <diagram name="PÃ¡gina-1" id="MNOcVEuxpj7hkLzEe3pq">
    <mxGraphModel dx="679" dy="374" grid="1" gridSize="10" guides="1" tooltips="1" connect="1" arrows="1" fold="1" page="1" pageScale="1" pageWidth="827" pageHeight="1169" math="0" shadow="0">
      <root>
        <mxCell id="0" />
        <mxCell id="1" parent="0" />
        <mxCell id="oPeAeM1fauXTt7MpybGJ-1" value="Lenguajes de servidor" style="rounded=1;whiteSpace=wrap;html=1;fillColor=#d5e8d4;strokeColor=#82b366;" vertex="1" parent="1">
          <mxGeometry x="30" y="125" width="120" height="60" as="geometry" />
        </mxCell>
        <mxCell id="oPeAeM1fauXTt7MpybGJ-2" value="Nodejs" style="rounded=1;whiteSpace=wrap;html=1;fillColor=#d5e8d4;strokeColor=#82b366;" vertex="1" parent="1">
          <mxGeometry x="220" y="140" width="60" height="30" as="geometry" />
        </mxCell>
        <mxCell id="oPeAeM1fauXTt7MpybGJ-3" value="Paquetes Internos" style="rounded=1;whiteSpace=wrap;html=1;fillColor=#e1d5e7;strokeColor=#9673a6;" vertex="1" parent="1">
          <mxGeometry x="180" y="70" width="150" height="30" as="geometry" />
        </mxCell>
        <mxCell id="oPeAeM1fauXTt7MpybGJ-4" value="http" style="rounded=1;whiteSpace=wrap;html=1;fillColor=#fff2cc;strokeColor=#d6b656;" vertex="1" parent="1">
          <mxGeometry x="180" y="50" width="50" height="20" as="geometry" />
        </mxCell>
        <mxCell id="oPeAeM1fauXTt7MpybGJ-6" value="http-server" style="rounded=1;whiteSpace=wrap;html=1;fillColor=#fff2cc;strokeColor=#d6b656;" vertex="1" parent="1">
          <mxGeometry x="350" y="35" width="72" height="20" as="geometry" />
        </mxCell>
        <mxCell id="oPeAeM1fauXTt7MpybGJ-7" value="Paquetes Externos" style="rounded=1;whiteSpace=wrap;html=1;fillColor=#dae8fc;strokeColor=#6c8ebf;" vertex="1" parent="1">
          <mxGeometry x="350" y="55" width="150" height="30" as="geometry" />
        </mxCell>
        <mxCell id="oPeAeM1fauXTt7MpybGJ-8" value="crypto" style="rounded=1;whiteSpace=wrap;html=1;fillColor=#fff2cc;strokeColor=#d6b656;" vertex="1" parent="1">
          <mxGeometry x="230" y="50" width="50" height="20" as="geometry" />
        </mxCell>
        <mxCell id="oPeAeM1fauXTt7MpybGJ-9" style="edgeStyle=orthogonalEdgeStyle;rounded=0;orthogonalLoop=1;jettySize=auto;html=1;entryX=0.536;entryY=1.086;entryDx=0;entryDy=0;entryPerimeter=0;" edge="1" parent="1" source="oPeAeM1fauXTt7MpybGJ-10" target="oPeAeM1fauXTt7MpybGJ-7">
          <mxGeometry relative="1" as="geometry" />
        </mxCell>
        <mxCell id="oPeAeM1fauXTt7MpybGJ-11" value="" style="edgeStyle=orthogonalEdgeStyle;rounded=0;orthogonalLoop=1;jettySize=auto;html=1;entryX=0;entryY=0.5;entryDx=0;entryDy=0;" edge="1" parent="1" source="oPeAeM1fauXTt7MpybGJ-2" target="oPeAeM1fauXTt7MpybGJ-10">
          <mxGeometry relative="1" as="geometry">
            <mxPoint x="280" y="155" as="sourcePoint" />
            <mxPoint x="418" y="103" as="targetPoint" />
          </mxGeometry>
        </mxCell>
        <mxCell id="oPeAeM1fauXTt7MpybGJ-10" value="&lt;b&gt;npm &lt;/b&gt;/ yarn / pnpm" style="rounded=1;whiteSpace=wrap;html=1;" vertex="1" parent="1">
          <mxGeometry x="380" y="140" width="110" height="30" as="geometry" />
        </mxCell>
        <mxCell id="oPeAeM1fauXTt7MpybGJ-12" value="GESTORES de PAQUETES" style="rounded=1;whiteSpace=wrap;html=1;fillColor=#f5f5f5;strokeColor=#666666;fontColor=#333333;" vertex="1" parent="1">
          <mxGeometry x="360" y="180" width="150" height="30" as="geometry" />
        </mxCell>
      </root>
    </mxGraphModel>
  </diagram>
</mxfile>
